<svg width="100" height="100" viewBox="0 0 100 100" fill="none" xmlns="http://www.w3.org/2000/svg">
<path d="M79.1655 14.5814C78.015 14.5814 77.0842 15.5151 77.0842 16.6656V22.9156H81.2499V16.6656C81.2499 15.5151 80.3163 14.5814 79.1655 14.5814Z" fill="#434A54"/>
<path d="M87.4999 14.5814C86.3493 14.5814 85.4155 15.5151 85.4155 16.6656V22.9156H89.5841V16.6656C89.5841 15.5151 88.6504 14.5814 87.4999 14.5814Z" fill="#434A54"/>
<path d="M81.2499 23.9563V64.5814V72.9158C81.2499 76.3612 78.4454 79.1657 75 79.1657C71.5546 79.1657 68.75 76.3612 68.75 72.9158C68.75 72.9158 64.5843 69.5069 64.5843 72.9158C64.5843 78.6681 69.2475 83.3314 75 83.3314C80.7523 83.3314 85.4157 78.6683 85.4157 72.9158V23.9563H81.2499Z" fill="#CCD1D9"/>
<path d="M72.9156 20.8313V27.0813C72.9156 32.8368 77.5787 37.4999 83.3342 37.4999C89.0869 37.4999 93.7499 32.8368 93.7499 27.0813V20.8313H72.9156Z" fill="#FFCE54"/>
<path d="M14.5843 97.9158C13.4338 97.9158 12.5001 96.9819 12.5001 95.8313V4.16553C12.5001 3.01811 13.434 2.0813 14.5843 2.0813H64.5841C65.7315 2.0813 66.6654 3.01811 66.6654 4.16553V95.8313C66.6654 96.9819 65.7315 97.9158 64.5841 97.9158H14.5843Z" fill="#E6E9ED"/>
<path d="M66.6652 2.0813H12.5003V45.831H66.6652V2.0813Z" fill="#5D9CEC"/>
<path d="M64.5841 0H14.5843C12.2832 0 10.4157 1.86463 10.4157 4.16553V95.8313C10.4157 98.1324 12.2834 100 14.5843 100H64.5841C66.8852 100 68.7499 98.1324 68.7499 95.8313V4.16553C68.7501 1.86463 66.8854 0 64.5841 0ZM64.5841 95.8313H14.5843V4.16553H64.5841V95.8313Z" fill="#E6E9ED"/>
<path d="M72.9156 100H6.24994V91.6658C6.24994 89.3649 8.11457 87.5001 10.4155 87.5001H68.7498C71.0507 87.5001 72.9154 89.3649 72.9154 91.6658L72.9156 100Z" fill="#656D78"/>
<path d="M50.6316 70.3828L43.2646 63.0159C42.4528 62.201 41.1344 62.201 40.3197 63.0159L37.3747 65.9607L31.4817 60.0708C30.6668 59.2561 29.3486 59.2561 28.5337 60.0708C27.7219 60.8826 27.7219 62.201 28.5337 63.0159L35.9008 70.3828C36.7155 71.1943 38.0339 71.1943 38.8456 70.3828L41.7936 67.4346L47.6866 73.3276C48.4984 74.1425 49.8167 74.1425 50.6316 73.3276C51.4465 72.5158 51.4465 71.1943 50.6316 70.3828Z" fill="#F6BB42"/>
</svg>
