<svg width="100" height="100" viewBox="0 0 100 100" fill="none" xmlns="http://www.w3.org/2000/svg">
<g clip-path="url(#clip0_1_2028)">
<path d="M8.33334 70.8333H12.5V91.6667H33.3333V95.8333H8.33334V70.8333ZM95.8333 70.8333H91.6667V91.6667H70.8333V95.8333H95.8333V70.8333ZM12.5 12.5H33.3333V8.33333H8.33334V33.3333H12.5V12.5ZM95.8333 8.33333H70.8333V12.5H91.6667V33.3333H95.8333V8.33333ZM55.2083 58.3333H48.9583C48.1295 58.3333 47.3347 58.0041 46.7486 57.418C46.1626 56.832 45.8333 56.0371 45.8333 55.2083V48.9583C45.8333 48.1295 46.1626 47.3347 46.7486 46.7486C47.3347 46.1626 48.1295 45.8333 48.9583 45.8333H55.2083C56.0371 45.8333 56.832 46.1626 57.418 46.7486C58.0041 47.3347 58.3333 48.1295 58.3333 48.9583V55.2083C58.3333 56.0371 58.0041 56.832 57.418 57.418C56.832 58.0041 56.0371 58.3333 55.2083 58.3333ZM54.1667 50H50V54.1667H54.1667V50ZM83.3333 50H62.5V54.1667H83.3333V50ZM41.6667 50H20.8333V54.1667H41.6667V50ZM54.1667 83.3333V62.5H50V83.3333H54.1667ZM50 41.6667H54.1667V20.8333H50V41.6667Z" fill="black"/>
</g>
<defs>
<clipPath id="clip0_1_2028">
<rect width="100" height="100" fill="white"/>
</clipPath>
</defs>
</svg>
