<svg width="200" height="200" viewBox="0 0 200 200" fill="none" xmlns="http://www.w3.org/2000/svg">
<path fill-rule="evenodd" clip-rule="evenodd" d="M200 75.9294C200 37.2353 168.435 5.88232 129.518 5.88232C90.5647 5.88232 59.0118 37.2353 59.0118 75.9294C59.0118 114.6 90.5765 145.953 129.518 145.953C168.435 145.953 200 114.6 200 75.9294ZM69.8118 76.6941C69.8118 43.6823 96.6235 16.9764 129.718 16.9764C162.788 16.9764 189.576 43.6941 189.576 76.6941C189.576 109.682 162.788 136.4 129.718 136.4C96.6235 136.4 69.8118 109.671 69.8118 76.6941Z" fill="#434343"/>
<path fill-rule="evenodd" clip-rule="evenodd" d="M33.2 193.694L11.7647 172.259L59.2588 124.753C59.2588 124.753 60.3882 133.753 66.0824 139.424C71.7529 145.118 80.6941 146.2 80.6941 146.2L33.2 193.694Z" fill="#434343"/>
<path fill-rule="evenodd" clip-rule="evenodd" d="M169.388 65.5647C169.388 72.2941 174.565 69.7529 174.565 60.4C174.565 44.2823 161.518 31.2235 145.4 31.2235C136.024 31.2235 133.494 36.3882 140.235 36.3882C156.353 36.3882 169.388 49.4588 169.388 65.5647Z" fill="#434343"/>
</svg>
