<svg width="100" height="100" viewBox="0 0 100 100" fill="none" xmlns="http://www.w3.org/2000/svg">
<g clip-path="url(#clip0_1_2033)">
<path d="M50 100C77.6142 100 100 77.6142 100 50C100 22.3858 77.6142 0 50 0C22.3858 0 0 22.3858 0 50C0 77.6142 22.3858 100 50 100Z" fill="#E4E7ED"/>
<path d="M50 28.3641C61.9486 28.3641 71.6359 38.0516 71.6359 50C71.6359 61.9484 61.9486 71.6359 50 71.6359C38.0514 71.6359 28.3641 61.9486 28.3641 50C28.3641 38.0514 38.0514 28.3641 50 28.3641Z" fill="#5D718F"/>
<path d="M50 28.3641C58.568 28.3641 65.9721 33.3408 69.4746 40.5676C70.0066 42.5295 70.2838 44.591 70.2838 46.7191C70.2838 59.7762 59.6986 70.3502 46.6527 70.3502C44.7131 70.3502 42.8287 70.1174 41.0221 69.674C33.5625 66.2602 28.3752 58.7342 28.3752 49.9889C28.3752 38.0402 38.0627 28.3529 50.0111 28.3529L50 28.3641Z" fill="#6B7F9E"/>
<path d="M63.5224 33.108C67.5459 36.3334 70.3945 40.9555 71.3144 46.2537C71.2478 46.1539 71.1814 46.0209 71.1148 45.8324C70.6937 45.9766 70.6826 45.9766 70.1838 46.0652L70.1615 46.0984C69.9621 46.3756 70.1726 46.2646 69.818 46.5529C69.4078 46.9076 69.1308 47.3842 68.6652 47.6613C68.6098 48.1602 68.7096 48.2709 68.5877 48.8584C68.5433 49.0801 68.2994 49.6564 68.0113 49.6121C67.9226 49.601 67.5348 48.6479 67.4461 48.3928C67.291 47.9494 67.1246 47.6168 67.0139 47.107C66.9473 46.8299 66.9141 46.309 66.8476 46.1316C66.5484 46.176 66.5596 46.3645 66.2824 46.1648C66.0828 46.0207 66.1715 45.932 66.0607 45.7104C65.8279 45.4887 65.5842 45.267 65.3402 45.0453C65.1517 44.9898 64.4312 45.0896 64.132 45.0564C63.5889 45.001 63.5334 45.0344 63.2121 44.602C62.6357 44.6352 62.6801 44.8459 62.1258 44.358C61.7599 44.0477 61.8265 43.5488 61.2945 43.826C61.2724 44.2805 61.4939 44.3803 61.6935 44.5908C61.8377 44.757 62.015 44.868 62.0926 45.0785C62.1037 45.0897 62.1369 45.2891 62.1369 45.3113C62.6578 45.3445 62.7799 45.1008 63.068 44.89C63.3451 45.1449 63.0791 45.2004 63.4781 45.4C63.7996 45.5662 63.733 45.4664 63.9437 45.7324C64.0435 46.0871 63.2344 47.0293 62.9572 47.2066C62.7467 47.3396 62.6357 47.2621 62.4473 47.4172C62.1701 47.65 62.4805 47.6166 61.9928 47.7941C61.4719 47.9826 60.9619 48.3816 60.4187 48.4148C60.2969 48.0934 60.1859 47.7609 60.0641 47.4395C59.7205 46.3199 59.7316 46.7521 59.3769 46.1758C59.2107 45.9209 59.2771 45.7656 59.1664 45.5439C59.0889 45.3777 58.9779 45.3 58.8672 45.1006C58.7119 44.7791 58.5236 44.2914 58.1578 44.3357C58.0803 44.5797 58.5014 45.433 58.6012 45.6326C58.701 45.8432 58.8672 45.9318 58.9226 46.2201C58.989 46.6191 58.9115 46.5748 59.1332 46.8408C59.5988 47.4061 59.1111 47.3064 59.8314 47.8494C60.3746 48.2596 60.2305 48.3814 60.4633 48.9357C60.818 49.0355 61.8709 48.5699 62.0482 48.7029C62.2588 49.0908 61.8043 49.7006 61.6824 50.033C61.2945 51.1525 60.6183 51.1303 60.0974 51.9838C59.8094 52.4492 59.6873 52.5047 59.4213 53.059C59.1221 53.6908 60.0199 55.4199 59.4879 56.1514C59.366 56.3176 58.9891 56.4174 58.5125 56.9273C58.0025 57.4705 58.5236 57.3818 58.3351 58.3018C58.1801 58.5123 57.9916 58.5234 57.8142 58.6787C57.7476 58.8893 57.8031 59.0666 57.6812 59.3326C57.5594 59.6541 57.5371 59.4768 57.3598 59.7428C57.2267 59.9424 57.2379 60.0311 57.0937 60.2193C56.9607 60.3967 56.8943 60.441 56.7723 60.5518C56.1736 61.1061 54.8769 61.1281 54.766 61.0506C54.4557 60.7957 54.6662 60.718 54.5887 60.3523C54.5111 60.0309 54.3447 59.7648 54.2008 59.51L54.1896 59.4879C54.123 59.366 54.0566 59.2439 54.0234 59.1332C53.7795 58.3463 53.8683 57.7477 53.4248 56.9496C52.8816 55.9188 53.724 55.3756 53.6908 54.7992C53.6797 54.6441 53.6244 54.5553 53.6133 54.4223C53.5135 53.7793 53.4471 53.2029 53.0146 52.6932C52.5381 52.1391 52.6045 52.3385 52.7598 51.4295C52.9482 50.3875 52.5158 50.6535 51.8842 50.6314C51.5738 49.6893 50.9863 50.1438 50.3879 50.4318C50.0109 50.598 49.8779 50.3875 49.4568 50.443C48.5146 50.576 49.2574 50.975 47.9937 49.9773C47.4728 49.5561 47.8164 49.7779 47.506 49.2568C47.4062 49.0684 47.0848 48.8135 46.9408 48.625C46.4642 48.0264 47.0295 47.4168 46.9519 46.7297C46.8078 45.4551 46.5973 46.5635 47.3066 45.0227C47.6836 44.2023 48.2488 44.1914 48.393 43.8256C48.5148 43.493 48.4373 43.2604 48.6701 42.9609C48.8806 42.717 49.1801 42.7613 49.2908 42.3846C49.457 41.908 49.1355 41.8525 48.792 41.8414C48.6478 41.3426 48.6478 41.4756 48.7588 41.0102C48.8252 40.7553 48.7699 40.6332 48.8252 40.3783C48.9693 39.7354 50.0555 40.3783 50.3658 40.1123C50.5099 39.8352 50.532 39.5691 50.3658 39.3143C50.1885 39.0594 49.9668 39.0926 49.8449 38.8377C50.1109 38.6604 49.9113 38.8156 50.1441 38.7713C50.4101 38.7158 50.3769 38.6272 50.6982 38.5719C50.9865 38.5164 51.1639 38.2504 51.4408 38.073C51.8398 37.8182 51.6514 37.5854 52.1279 37.5078C52.8928 37.3748 52.3939 37.3969 52.4826 36.6766C52.6045 36.6322 52.7154 36.5768 52.8262 36.5324C53.0701 36.8539 52.7598 36.7209 53.059 36.9314C53.1365 36.8871 53.2252 36.8428 53.3029 36.7984C53.2586 36.4549 53.1033 36.5213 53.0037 36.0891C52.6267 36.1445 52.4828 36.477 52.1834 36.3551C51.8842 36.2441 51.873 35.8119 51.8842 35.4572C51.9951 35.1912 52.5492 35.0471 52.7598 34.9807C53.1033 34.8588 53.059 34.626 53.3805 34.3156C53.7906 33.8943 53.4914 34.3156 53.6908 33.7836C54.1453 33.7615 53.9348 33.7504 54.2008 33.6063L54.2119 33.5951L54.2451 33.584C54.4002 33.5064 54.6109 33.4953 54.8215 33.4178C55.5863 33.1629 55.8967 33.2848 56.4508 33.5176C56.883 33.6949 58.1799 33.7061 58.2685 34.2492C57.9582 34.5707 57.659 34.3379 57.2045 34.3711C57.282 34.7924 57.3264 34.7924 57.7033 34.9031C57.7697 34.7035 57.6812 34.7813 57.7808 34.6592C57.9027 34.6813 58.0357 34.7035 58.1578 34.7256C58.2797 34.2934 58.4238 34.3598 58.856 34.3043C58.7896 34.0051 58.7119 34.0938 58.8672 33.8609C59.2994 33.9053 58.9447 33.8721 59.1664 34.2156C59.4656 34.1824 59.7648 33.8387 60.1861 33.7945C60.4521 33.7723 60.4301 33.8721 60.8068 33.8277C61.1172 33.7945 61.0949 33.6836 61.4055 33.8166C61.5164 33.6061 61.4055 33.6172 61.6715 33.5617C62.0816 33.4953 62.4474 33.7391 62.8465 33.8057C62.5472 33.4398 62.2701 33.5064 62.6359 32.8967C63.1016 32.7969 63.1459 32.8746 63.3453 33.2182C63.4562 33.1518 63.5115 33.0852 63.567 33.052L63.5224 33.108ZM28.8849 45.3336C29.8603 40.9 32.1881 36.9762 35.4246 34.0168C35.6795 34.1055 36.0121 34.05 36.2558 34.0391C36.3445 33.8729 36.4 33.7287 36.5551 33.6621C36.6215 33.64 36.6992 33.64 36.799 33.64C36.8101 33.7176 36.8322 33.8062 36.8545 33.884C36.8545 33.8951 36.8656 33.9504 36.8656 33.9395C36.8767 33.9283 36.8767 33.9727 36.8879 33.9838C37.3201 33.7289 36.9543 33.7289 37.1871 33.2633C36.8213 33.1969 36.8656 33.2301 36.6439 32.9973C36.8656 32.7533 37.2978 32.6647 37.6193 32.698C37.5973 32.9197 37.4974 32.9086 37.575 33.0971C37.8189 32.942 37.9961 32.5318 38.3953 32.5982C38.4728 32.6537 38.5615 32.7092 38.6392 32.7535C38.4287 32.9529 38.1183 32.9641 37.8523 33.075C37.7305 34.2832 38.2293 33.2744 38.0629 34.0947C38.3621 34.0727 38.6504 33.851 38.7611 33.6293C38.6502 33.4852 38.4951 33.4852 38.4064 33.3078C38.4728 33.0861 38.6281 32.9199 38.8387 32.8201C38.9828 32.7537 39.149 32.7203 39.3486 32.7203C41.5543 32.7426 40.5014 32.8422 41.1887 33.1525C41.3439 33.2189 41.6099 33.2523 41.6986 33.3854C41.8428 33.5959 41.7098 33.7955 41.9314 33.9617C42.1199 34.1059 42.1531 33.9617 42.408 34.2832C42.3525 34.4605 42.2195 34.649 41.9535 34.6602C41.5765 34.6602 41.7984 34.4053 41.3992 34.4496C41.4103 34.8266 41.7762 34.9705 41.4324 35.1813C41.1332 35.3586 41.3215 35.1148 41.0889 35.2367C41.0777 35.2479 41.0668 35.2479 41.0557 35.2588C41.0445 35.2697 41.0334 35.2811 41.0224 35.292C40.9781 35.3363 40.9449 35.3695 40.9117 35.4139C40.3574 35.2586 40.4572 35.3363 40.1248 34.9594C40.0029 34.8152 39.9806 34.782 39.759 34.8043C39.6148 34.8043 39.4375 34.8707 39.3045 34.7488C39.5705 34.4053 39.7035 34.7377 40.1025 34.5383C40.1691 34.5051 40.6125 34.1725 40.6789 34.0838C40.557 33.8178 40.6678 34.0395 40.4904 33.8621C40.1025 33.4742 39.9916 33.5629 39.4707 33.5629C39.2267 33.8512 39.0385 34.1947 38.7724 34.3498C38.6062 34.4385 38.4178 34.4605 38.1629 34.3498C38.2848 34.8264 38.5842 34.4605 38.6174 35.0371C38.418 34.9928 38.307 34.893 38.1074 34.9707C37.664 35.1369 38.0631 35.1258 38.0963 35.2146C38.0963 35.2146 38.3068 35.2367 38.0963 35.3254C37.8635 35.4029 38.0631 35.2811 37.6197 35.015C37.6861 34.9043 37.7416 34.7934 37.8082 34.6715C37.4535 34.7824 36.999 34.9596 36.5779 35.1703C36.1014 35.4031 35.6469 35.6803 35.3808 35.9352C35.3697 36.3564 35.4473 36.0793 35.4918 36.567C36.1348 36.6002 35.924 36.7998 36.567 36.9771C36.6889 37.0104 36.8553 37.0436 37.0435 37.077C37.0435 37.3873 36.7664 37.6201 36.9549 37.9416C37.4094 38.252 37.4203 37.6424 37.5312 37.2434C39.0609 36.9219 38.3181 36.4785 38.7172 35.6361C38.7726 35.5143 38.8613 35.3813 38.9832 35.2371C39.1051 35.2482 39.5818 35.2926 39.6814 35.3147C40.025 35.3701 39.8365 35.4588 40.2135 35.625C40.2023 35.9242 40.0584 36.3123 40.5017 36.2457C40.8453 36.1902 40.7678 35.9133 41.1779 35.8467C41.3664 36.29 41.3109 36.4785 41.3996 36.9994C42.3973 37.3873 41.9539 37.7088 41.7543 38.4293C41.8762 38.4848 42.0092 38.5512 42.1422 38.5955C42.131 38.8061 42.131 39.0168 42.1201 39.2162C42.098 39.2162 41.056 38.9834 40.9785 38.9723C41.1336 38.5178 41.433 38.5068 41.6215 38.0412C41.2445 38.1076 41.2779 38.2186 41.0008 38.3072C40.7568 38.3848 40.5685 38.3295 40.3135 38.3627C40.2248 38.6619 40.3023 38.0967 40.3355 38.4846C40.3467 38.6287 40.4131 38.4957 40.3244 38.6508C39.9808 38.4846 40.0916 38.1076 39.4488 38.4623C39.593 38.5287 39.7371 38.5842 39.8922 38.6508C39.8701 39.0721 39.8367 38.7506 39.748 39.0387C39.5264 39.7703 40.3465 39.3158 40.5683 39.2715C40.5129 39.6594 40.2801 39.6594 39.9476 39.7592C39.5818 39.8701 39.4711 40.0252 39.1828 40.0916C39.1828 39.6371 39.1164 40.0141 39.3158 39.7037C39.0275 39.7258 38.8058 39.8699 38.5289 39.9809L38.4957 39.992C38.141 40.1361 38.0855 40.1582 38.0412 40.6127C37.742 40.7014 37.3873 40.8121 37.1656 41.0338C36.9551 41.2334 36.7334 41.4439 36.5226 41.6434C36.5004 41.6656 36.4894 41.6766 36.4783 41.6877C36.5558 42.2641 36.4783 42.2752 36.1348 42.4969C35.8467 42.6854 35.7469 42.6742 35.4808 42.9182C34.6162 43.6941 35.0264 43.3283 35.0818 44.6695C34.9045 44.6141 34.7271 44.5477 34.5609 44.4922C34.4279 43.6055 34.6053 43.9047 33.8959 43.6941C33.131 43.4725 33.2308 43.8494 32.9094 43.9158C32.5547 43.9934 32.3773 43.5943 31.8674 43.927C31.5793 44.1154 31.3133 44.2484 31.2467 44.592C31.1691 45.0133 30.9807 45.3125 31.0029 45.7779C31.0473 47.0305 32.1889 47.0969 32.4771 46.5205C32.6656 46.1326 32.6213 45.9219 33.2531 46.0217C33.3195 46.3541 33.2199 46.598 33.1312 46.8529C33.0758 47.0082 32.9207 47.2742 32.9982 47.4848C33.4527 47.6621 33.4637 47.3186 34.0623 47.6732C34.1066 48.2607 33.7963 48.9369 34.2508 49.2805C34.6055 49.5354 34.6277 49.3025 34.9381 49.2582C35.2816 49.2027 35.2264 49.4135 35.5367 49.4576C35.714 49.2359 35.6365 49.3801 35.7584 49.1029C35.9689 48.6373 36.0244 48.859 36.5121 48.5709C36.5564 48.5488 36.6008 48.5154 36.6562 48.4822C36.7117 48.6041 36.7781 48.715 36.8336 48.8258C37.1994 48.3936 37.2326 48.8146 37.6539 48.9367C37.8312 48.9811 37.9642 49.0031 38.0529 49.0031C38.3521 49.0031 38.3855 48.859 38.7955 49.0031C38.8398 49.0254 38.9064 49.0475 38.9617 49.0586C38.9728 49.0586 38.9838 49.0697 38.9838 49.0807C38.9949 49.0807 39.017 49.1029 39.017 49.1139C39.0834 49.1914 39.0945 49.2689 39.15 49.3467C39.4383 49.6238 39.7152 49.8898 39.9924 50.1559C40.5355 50.3775 40.5355 49.9674 41.1674 50.566C41.4334 50.8209 41.3115 50.81 41.4555 51.1312C41.4777 51.1867 41.5219 51.2311 41.5441 51.2975C41.5996 51.4525 41.666 51.5967 41.7215 51.7408C42.0096 52.1178 42.3976 51.885 42.7855 52.2617C43.0183 52.4834 42.841 52.417 43.3508 52.5057C44.1377 52.6387 43.8273 52.5611 44.426 53.0156C44.6588 53.1818 44.7142 53.0822 44.9248 53.2262C45.224 53.6473 45.1465 54.0908 44.9027 54.4564C44.1379 55.576 44.3928 55.3986 44.3596 56.2854C44.3264 56.7953 44.1822 57.8482 43.7056 57.9813C41.9654 58.4689 42.974 58.8125 42.5197 59.666C42.3867 59.91 42.2869 59.9764 42.2094 60.1648C41.8658 60.974 42.1096 61.251 41.0787 61.0627C41.1785 61.2289 41.1119 61.1182 41.2117 61.2732C41.5109 61.7498 41.5664 62.1045 40.9457 62.2154C40.4248 62.3152 40.6465 62.2154 40.6021 62.7918C40.4025 62.8693 40.3139 62.7918 40.1808 62.9248C40.3582 63.2574 40.192 62.9803 40.5023 63.1688C40.4469 63.3461 40.4025 63.5346 40.3582 63.7008C40.2363 64.133 40.2029 63.734 40.1697 64.2439C40.3471 64.3215 40.4801 64.3104 40.6351 64.532C40.6131 64.6982 40.4467 65.1527 40.4023 65.4076C40.6572 65.7955 40.868 66.2057 41.4109 66.2389C41.3998 66.5604 41.4773 66.527 41.2004 66.5936C40.9676 66.649 40.4687 66.4273 40.2582 66.3164C39.9035 66.1168 39.5709 65.8619 39.3271 65.4961C39.1941 65.2855 39.2496 65.3852 39.0943 65.1969C38.8283 64.8533 38.9392 64.698 38.8615 64.4764C38.8172 64.3434 38.6066 64.1992 38.6953 63.767C38.7174 63.6451 38.9058 63.0576 38.673 63.1574C38.4402 63.2572 38.8504 63.2129 38.5289 63.368C38.4514 63.1574 38.3848 62.8471 38.3515 62.5811C38.274 62.1377 38.1631 62.1266 38.1187 61.8605C38.0189 61.2398 38.274 61.1732 37.9857 60.1535C37.7973 59.4773 37.8748 57.8701 37.6642 57.0389C37.631 56.9059 37.5978 56.7949 37.5424 56.7064C37.3539 56.3961 36.8994 56.252 36.5338 55.9971C36.5115 55.9971 36.5006 55.9859 36.4894 55.975C35.9795 55.6203 35.5029 54.2236 35.1039 53.7027C34.9154 53.4479 34.8047 53.5586 34.716 53.1707C34.6273 52.8049 34.7603 52.8715 34.8822 52.5721C34.2615 51.4414 35.6803 51.4525 35.3922 50.1004C35.3258 49.8566 35.1482 49.502 34.9931 49.391C34.7049 49.524 34.8379 49.5906 34.6828 49.8344C34.45 49.7014 34.2172 49.5684 33.9846 49.4354C33.2752 48.748 33.6519 49.2469 33.4525 48.7924C33.0203 47.8502 32.6101 48.3822 32.1002 47.9057C31.8674 47.7062 31.8342 47.4068 31.4463 47.4623C30.8699 47.5398 31.1914 47.6285 30.5928 47.3514C30.0828 47.1186 29.5619 46.8305 29.2072 46.509C29.1849 45.8328 29.3957 45.8994 28.8857 45.2787V45.3336H28.8849ZM35.6683 33.8063C35.8014 33.6953 35.9344 33.5734 36.0674 33.4627L36.0785 33.485C36.1008 33.5293 36.1228 33.5293 36.156 33.6512C35.8014 33.7398 35.8014 33.7953 35.6683 33.8174V33.8063ZM54.1787 40.235C54.3672 40.3568 54.6 40.4455 54.7439 40.5785C54.9213 41.0773 54.6996 40.8334 55.0432 41.3545C55.2428 41.6316 55.1984 41.8311 55.409 41.9863C55.7859 41.942 55.4533 42.0527 55.6971 41.8201C55.7414 41.7758 55.8521 41.6316 55.8855 41.5873C55.7637 41.3988 55.6861 41.3768 55.5752 41.1883C56.0074 40.623 56.1959 40.9443 56.2957 41.3213C56.5617 42.3742 56.983 42.0639 57.3265 42.0195C57.6812 41.9752 57.3709 42.0307 57.6924 42.1193C58.0027 42.1969 57.8474 42.1193 58.0693 42.0639C58.801 41.8865 58.2355 43.2941 58.158 43.4494C57.759 43.4938 57.8365 43.4162 57.5594 43.3828C56.983 43.3273 57.5926 43.7264 56.2404 43.283C54.9435 42.8729 55.2207 42.773 54.9435 43.682C54.6443 43.66 54.6555 43.6045 54.3783 43.5047C54.2674 43.4604 54.2121 43.4383 54.1678 43.4271H54.1566C54.0457 43.3939 54.1566 43.4272 53.9238 43.2055C53.7242 43.017 53.2365 42.9727 52.8818 42.7842C52.8818 42.485 53.1478 42.241 52.8264 41.8752C52.7266 41.8531 51.2523 41.9084 51.0086 41.9527C50.532 42.0525 50.4433 42.4627 49.7892 42.374C49.4346 42.3186 49.5564 42.3629 49.4678 42.1523C49.5896 42.0305 49.4678 42.0969 49.6672 42.0193C49.7447 41.9973 49.767 41.9973 49.8445 41.9973C50.9086 41.8311 50.3654 41.299 51.0305 40.7779C51.5846 40.3346 51.1523 40.7891 51.4515 40.2459C51.8285 40.2127 51.773 40.401 52.0945 40.2459C52.3605 40.1129 52.2719 40.002 52.6486 39.9799C52.9812 40.3125 52.9146 40.5119 53.4578 40.7668C53.6683 40.8666 53.8014 40.9221 53.9455 41.1104C54.1894 41.465 53.9787 41.3543 54.0785 41.598C54.1006 41.5869 54.1228 41.5758 54.156 41.5648L54.1672 41.5537C54.4553 41.4096 54.023 41.3652 54.4887 40.9551C54.3556 40.8553 54.2558 40.7889 54.1672 40.7334L54.156 40.7223C53.7902 40.5117 53.9344 40.7111 53.4689 40.1238C53.3471 39.9576 53.3137 39.9465 53.3137 39.6916C53.6572 39.6361 53.7127 39.8801 54.023 40.1461C54.0674 40.1904 54.1117 40.2236 54.1672 40.257L54.1783 40.2682V40.235H54.1787ZM61.5717 55.1652C61.2724 55.3203 61.2281 55.6752 60.9953 55.8746C60.7514 56.1074 60.4078 55.9965 60.3191 56.4178C60.1973 56.9498 60.5297 56.7836 60.1641 57.4707C60.031 57.7256 60.0199 58.3686 60.2305 58.557C60.8291 59.1334 61.1615 57.6703 61.2945 57.2047C61.3943 56.8723 61.4939 56.5064 61.6049 56.1961C61.7158 55.8635 61.8709 55.5754 61.5717 55.1541V55.1652ZM60.5742 39.6918C60.6185 40.368 61.0287 40.634 61.3058 40.9443C61.2726 41.2658 61.1951 41.1883 61.206 41.6316C61.5496 41.8756 61.7935 42.0307 62.2369 41.9088C62.3033 41.3656 62.126 41.3879 61.9598 41.0221C61.9818 40.9777 62.0596 40.9223 62.0816 40.9113C62.2035 40.7451 62.148 40.9777 62.2035 40.7008C61.882 40.5898 61.35 40.2574 61.3057 39.8252C61.4609 39.7033 61.4166 39.7809 61.5385 39.7033C61.7933 39.5371 61.6049 39.792 61.749 39.5039C61.616 39.249 61.4719 39.2047 61.1504 39.3266C61.0062 39.382 60.6404 39.648 60.574 39.7035V39.6918H60.5742ZM57.7367 39.8691C57.5262 39.5699 57.5371 39.4147 57.116 39.4035C56.9498 39.5809 56.7613 39.8469 56.6615 40.124C56.5285 40.5342 56.6172 40.257 56.6394 40.7004C56.6283 40.7115 56.6394 40.7336 56.6394 40.7559C56.6283 41.0219 56.573 40.7004 56.6062 40.9553C56.9277 40.8889 56.6838 40.8889 56.9277 40.8111C57.1605 40.7336 57.8588 40.5229 58.0584 40.5783C58.5349 40.6893 58.934 41.066 59.4771 40.6893C59.4551 40.2016 58.8676 40.0242 58.4685 39.8137C58.4908 39.3703 58.6015 39.725 58.5795 39.2928C58.4465 39.2816 58.3578 39.2707 58.2248 39.315C57.9144 39.4592 58.0806 39.4924 58.0806 39.5367C58.0918 39.7807 58.391 39.4924 58.0695 39.7807C57.9808 39.8582 57.8367 39.8582 57.726 39.8693L57.7367 39.8691ZM49.6453 36.5107C49.6342 37.2867 49.9002 37.0316 50.1551 37.4086C50.0332 37.741 50.0109 37.475 49.889 37.8188C49.7672 38.1068 49.9113 37.852 49.8447 38.3396C50.0441 38.3508 50.3435 38.2842 50.6096 38.2621C50.9865 38.2289 50.9754 38.1957 51.1084 37.8076C50.8978 37.5527 50.6982 37.2977 50.4765 37.0428C50.2105 36.6326 50.4765 36.9098 50.399 36.5662C50.3326 36.4443 50.2771 36.3223 50.2217 36.2004C49.867 36.3223 49.9002 36.2891 49.6564 36.5107H49.6453Z" fill="#F7F9F7"/>
<path d="M13.8107 31.7889L19.9291 29.3281L18.8539 26.7123L28.7187 30.9465L24.6953 40.9775L23.4316 37.8629L18.1777 39.9689C15.8391 42.8619 15.6283 46.575 17.3797 51.0418L11.7379 46.6414C9.23281 44.6906 8.04687 41.7645 8.4791 38.6166C8.92265 35.4689 10.8512 32.975 13.8107 31.7889Z" fill="#5FDC68"/>
<path d="M18.1777 39.9801C8.65665 43.6268 17.1248 50.8535 17.1248 50.8535L17.3797 51.0529C15.7947 47.3176 15.5951 43.6156 18.1777 39.9801Z" fill="#56BF5D"/>
<path d="M22.4783 78.6633L22.0238 72.0793L19.2084 72.2898L26.2801 64.2096L34.582 71.1371L31.2346 71.3811L31.6225 77.0229C33.6508 80.1375 37.1201 81.4897 41.9084 81.2016L35.9785 85.2141C33.3404 86.9986 30.1926 87.2203 27.333 85.8236C24.4732 84.427 22.6998 81.8223 22.4781 78.6412L22.4783 78.6633Z" fill="#5FDC68"/>
<path d="M31.6115 77.034C32.1324 87.2201 41.6314 81.4012 41.6314 81.4012L41.9086 81.2127C37.8629 81.5674 34.2828 80.6031 31.6226 77.034H31.6115Z" fill="#56BF5D"/>
<path d="M69.7295 84.9035L63.334 83.2963L62.6689 86.0451L57.1713 76.8232L66.3268 71.0707L65.5176 74.3295L71.0041 75.7039C74.5953 74.7397 76.9451 71.8467 78.1645 67.2135L80.1484 74.0967C81.024 77.1559 80.2703 80.215 78.0647 82.5094C75.859 84.8037 72.8219 85.6795 69.7406 84.9035H69.7295Z" fill="#5FDC68"/>
<path d="M71.0043 75.7148C80.8469 78.3639 78.2533 67.5348 78.2533 67.5348L78.1647 67.2244C77.2445 71.1816 75.2272 74.2961 71.0043 75.7148Z" fill="#56BF5D"/>
<path d="M90.2682 41.8977L86.7656 47.484L89.1709 48.9693L78.6965 51.3523L76.0584 40.8668L78.9182 42.6402L81.9219 37.8408C82.1104 34.1277 80.093 31.002 76.0584 28.4084L83.2076 28.6523C86.3887 28.7631 89.06 30.4258 90.5563 33.2412C92.0527 36.0453 91.9529 39.2041 90.2682 41.8977Z" fill="#5FDC68"/>
<path d="M81.9219 37.8408C87.4861 29.2951 76.3799 28.4193 76.3799 28.4193L76.0473 28.4082C79.5277 30.5031 81.8664 33.385 81.9107 37.8406L81.9219 37.8408Z" fill="#56BF5D"/>
<path d="M55.7082 9.0668L59.9424 14.1322L62.0928 12.3033L61.1174 22.9994L50.3326 22.2678L52.9041 20.0953L49.2686 15.7504C45.7881 14.4203 42.1969 15.3734 38.4838 18.4105L40.9223 11.6826C42.0086 8.68984 44.4248 6.66152 47.5506 6.10742C50.6873 5.55313 53.6578 6.62832 55.6973 9.0668H55.7082Z" fill="#5FDC68"/>
<path d="M49.2683 15.7615C42.8617 7.83652 38.5945 18.1113 38.5945 18.1113L38.4836 18.4217C41.5539 15.7615 45.0121 14.4314 49.2683 15.7615Z" fill="#56BF5D"/>
</g>
<defs>
<clipPath id="clip0_1_2033">
<rect width="100" height="100" fill="white"/>
</clipPath>
</defs>
</svg>
